<svg width="18" height="19" viewBox="0 0 18 19" fill="none" xmlns="http://www.w3.org/2000/svg">
<path d="M15.75 1.81738H9C8.70172 1.81768 8.41575 1.9363 8.20483 2.14722C7.99392 2.35813 7.8753 2.64411 7.875 2.94238V8.56738H2.25C1.95172 8.56768 1.66575 8.6863 1.45483 8.89722C1.24392 9.10813 1.1253 9.39411 1.125 9.69238V17.5674H16.875V2.94238C16.8747 2.64412 16.756 2.35817 16.5451 2.14727C16.3342 1.93636 16.0483 1.81773 15.75 1.81738ZM5.0625 16.4424V12.5049H7.3125V16.4424H5.0625ZM15.75 16.4424H8.4375V11.9424C8.4375 11.7932 8.37824 11.6501 8.27275 11.5446C8.16726 11.4391 8.02418 11.3799 7.875 11.3799H4.5C4.35082 11.3799 4.20774 11.4391 4.10225 11.5446C3.99676 11.6501 3.9375 11.7932 3.9375 11.9424V16.4424H2.25V9.69238H9V2.94238H15.75V16.4424Z" fill="#ACB4C3"/>
<path d="M11.25 5.19238H10.125V6.31738H11.25V5.19238Z" fill="#ACB4C3"/>
<path d="M14.625 5.19238H13.5V6.31738H14.625V5.19238Z" fill="#ACB4C3"/>
<path d="M11.25 8.56738H10.125V9.69238H11.25V8.56738Z" fill="#ACB4C3"/>
<path d="M14.625 8.56738H13.5V9.69238H14.625V8.56738Z" fill="#ACB4C3"/>
<path d="M11.25 11.9422H10.125V13.0672H11.25V11.9422Z" fill="#ACB4C3"/>
<path d="M14.625 11.9422H13.5V13.0672H14.625V11.9422Z" fill="#ACB4C3"/>
</svg>
