<svg width="36" height="43" viewBox="0 0 36 43" fill="none" xmlns="http://www.w3.org/2000/svg">
<path fill-rule="evenodd" clip-rule="evenodd" d="M17.6759 42.9768C17.1694 42.9768 16.6933 42.7768 16.3359 42.4153L5.79884 31.6908C5.552 31.4444 -0.256699 25.5451 0.82602 16.364C1.42308 11.2858 4.60231 6.37331 9.12233 3.54447C11.8448 1.84113 14.8212 0.976807 17.9668 0.976807C20.0505 0.976807 22.1542 1.3653 24.2203 2.13087C29.8743 4.2276 33.8486 8.52228 34.8519 13.6201C36.8354 23.703 32.0293 29.3631 28.1673 33.9116C27.5237 34.669 26.9259 35.3734 26.3961 36.0533L26.3633 36.0973L26.175 36.2997L26.1261 36.3454C26.0676 36.3993 26.0171 36.4377 25.965 36.4752L25.8007 36.596L25.4721 36.7478L25.1251 36.8327C25.1251 36.8327 24.8382 36.8466 24.8262 36.8466H24.7653L24.3998 36.7992L24.3044 36.765C24.3036 36.7641 24.1193 36.6972 24.08 36.6801L24.0119 36.6499C23.6938 36.4458 23.6914 36.4442 23.6809 36.4336L23.4726 36.2532L12.1701 24.7697C12.0611 24.6587 9.5054 22.0144 9.92856 17.7499C10.3653 13.3515 14.2731 11.1161 16.0979 10.7219C16.7543 10.579 17.409 10.5072 18.0421 10.5072C20.6484 10.5072 22.8755 11.6653 24.4824 13.8551C25.7334 15.5617 26.3024 17.6642 26.0836 19.774C25.8945 21.5908 25.1363 23.277 24.0536 24.2833C23.7034 24.6106 23.2474 24.791 22.7721 24.791C22.2304 24.791 21.7327 24.5681 21.3672 24.1625C20.6588 23.3733 20.7117 22.1449 21.4858 21.4234C22.252 20.666 22.9124 18.1922 21.4329 16.1739C20.549 14.9692 19.4398 14.384 18.0381 14.384C17.6711 14.384 17.2832 14.4273 16.8873 14.5121C16.4153 14.6207 13.9581 15.6899 13.7145 18.14C13.4933 20.3714 14.6537 21.794 14.8893 22.0568L24.7612 32.0908L25.3078 31.4868C28.0054 28.5045 33.0263 22.9538 31.2151 14.7823C30.3063 10.6745 27.2833 7.39107 22.918 5.77343C21.2542 5.15559 19.5865 4.84299 17.9644 4.84299C15.5754 4.84299 13.2072 5.53592 11.1147 6.84669C7.56116 9.06993 5.06714 12.8937 4.60392 16.8252C3.73518 24.1886 8.25118 28.7151 8.44432 28.9044L19.0119 39.6607C19.3741 40.0264 19.5753 40.5128 19.5785 41.0294C19.5793 41.5485 19.3837 42.0358 19.0271 42.403C18.6672 42.7728 18.188 42.9768 17.6759 42.9768V42.9768Z" fill="#1355FF"/>
</svg>
