<svg width="16" height="16" viewBox="0 0 16 16" fill="none" xmlns="http://www.w3.org/2000/svg">
<path d="M8 0.125C6.44248 0.125 4.91992 0.586861 3.62489 1.45218C2.32985 2.31749 1.32049 3.5474 0.724452 4.98637C0.128412 6.42534 -0.0275391 8.00874 0.276319 9.53634C0.580178 11.0639 1.3302 12.4671 2.43154 13.5685C3.53288 14.6698 4.93607 15.4198 6.46367 15.7237C7.99127 16.0275 9.57467 15.8716 11.0136 15.2756C12.4526 14.6795 13.6825 13.6702 14.5478 12.3751C15.4131 11.0801 15.875 9.55753 15.875 8C15.875 5.91142 15.0453 3.90838 13.5685 2.43153C12.0916 0.954685 10.0886 0.125 8 0.125ZM8 14.75C6.66498 14.75 5.35994 14.3541 4.2499 13.6124C3.13987 12.8707 2.27471 11.8165 1.76382 10.5831C1.25293 9.34971 1.11925 7.99251 1.3797 6.68314C1.64015 5.37377 2.28303 4.17103 3.22703 3.22703C4.17104 2.28302 5.37377 1.64015 6.68314 1.3797C7.99252 1.11925 9.34972 1.25292 10.5831 1.76381C11.8165 2.2747 12.8707 3.13987 13.6124 4.2499C14.3541 5.35993 14.75 6.66498 14.75 8C14.75 9.79021 14.0388 11.5071 12.773 12.773C11.5071 14.0388 9.79021 14.75 8 14.75Z" fill="#ACB4C3"/>
<path d="M5.46875 5.1875C5.19062 5.1875 4.91874 5.26998 4.68748 5.4245C4.45623 5.57902 4.27598 5.79864 4.16955 6.0556C4.06311 6.31256 4.03526 6.59531 4.08952 6.8681C4.14378 7.14088 4.27772 7.39145 4.47438 7.58812C4.67105 7.78479 4.92162 7.91872 5.19441 7.97298C5.46719 8.02724 5.74994 7.99939 6.0069 7.89296C6.26386 7.78652 6.48349 7.60628 6.63801 7.37502C6.79253 7.14376 6.875 6.87188 6.875 6.59375C6.8765 6.40866 6.84115 6.22512 6.77101 6.05383C6.70087 5.88254 6.59735 5.72692 6.46646 5.59604C6.33558 5.46516 6.17996 5.36163 6.00867 5.29149C5.83738 5.22135 5.65384 5.186 5.46875 5.1875Z" fill="#ACB4C3"/>
<path d="M10.5313 5.1875C10.2531 5.1875 9.98124 5.26998 9.74998 5.4245C9.51873 5.57902 9.33848 5.79864 9.23205 6.0556C9.12561 6.31256 9.09776 6.59531 9.15202 6.8681C9.20628 7.14088 9.34022 7.39145 9.53688 7.58812C9.73355 7.78479 9.98412 7.91872 10.2569 7.97298C10.5297 8.02724 10.8124 7.99939 11.0694 7.89296C11.3264 7.78652 11.546 7.60628 11.7005 7.37502C11.855 7.14376 11.9375 6.87188 11.9375 6.59375C11.939 6.40866 11.9037 6.22512 11.8335 6.05383C11.7634 5.88254 11.6598 5.72692 11.529 5.59604C11.3981 5.46516 11.2425 5.36163 11.0712 5.29149C10.8999 5.22135 10.7163 5.186 10.5313 5.1875Z" fill="#ACB4C3"/>
<path d="M8 12.5C8.77646 12.4987 9.53937 12.2965 10.2146 11.9131C10.8897 11.5296 11.4542 10.978 11.8531 10.3119L10.8913 9.74938C10.5911 10.2479 10.1671 10.6603 9.66051 10.9466C9.15391 11.2329 8.5819 11.3833 8 11.3833C7.41811 11.3833 6.8461 11.2329 6.3395 10.9466C5.83291 10.6603 5.40894 10.2479 5.10875 9.74938L4.14688 10.3119C4.54578 10.978 5.11027 11.5296 5.78545 11.9131C6.46064 12.2965 7.22355 12.4987 8 12.5Z" fill="#ACB4C3"/>
</svg>
